<svg width="106" height="89" viewBox="0 0 106 89" fill="none" xmlns="http://www.w3.org/2000/svg">
<path d="M41.1246 5.74199C33.1465 1.93294 21.9954 0.0670525 7.06609 0.000808001C5.6581 -0.018321 4.27774 0.392243 3.10909 1.17775C2.14984 1.82613 1.36461 2.70029 0.822479 3.72334C0.280342 4.74639 -0.00209412 5.88698 1.16896e-05 7.0448V70.2199C1.16896e-05 74.4905 3.03842 77.7122 7.06609 77.7122C22.7594 77.7122 38.5013 79.1784 47.9301 88.0905C48.0591 88.213 48.2212 88.2948 48.3963 88.3259C48.5714 88.357 48.7518 88.336 48.9151 88.2654C49.0784 88.1948 49.2173 88.0778 49.3146 87.929C49.412 87.7801 49.4634 87.6059 49.4625 87.428V12.9891C49.4629 12.4869 49.3555 11.9904 49.1475 11.5333C48.9395 11.0762 48.6358 10.669 48.2569 10.3394C46.0971 8.49298 43.698 6.94657 41.1246 5.74199ZM102.882 1.17113C101.713 0.387574 100.332 -0.0206984 98.9251 0.000808001C83.9958 0.0670525 72.8446 1.9241 64.8666 5.74199C62.2933 6.94438 59.8935 8.48776 57.7321 10.3305C57.354 10.6608 57.051 11.0681 56.8435 11.5251C56.6359 11.9822 56.5285 12.4783 56.5286 12.9803V87.4236C56.5285 87.5945 56.5789 87.7617 56.6734 87.9041C56.7679 88.0465 56.9024 88.1578 57.0599 88.2241C57.2175 88.2903 57.3911 88.3086 57.559 88.2766C57.7269 88.2446 57.8816 88.1637 58.0037 88.0441C63.672 82.4133 73.6197 77.7056 98.9339 77.7078C100.808 77.7078 102.605 76.9633 103.93 75.6382C105.256 74.313 106 72.5157 106 70.6417V7.04701C106.003 5.8869 105.719 4.74401 105.176 3.71923C104.632 2.69446 103.844 1.81933 102.882 1.17113Z" fill="black"/>
</svg>
