<svg width="122" height="122" viewBox="0 0 122 122" fill="none" xmlns="http://www.w3.org/2000/svg">
<path d="M117.842 18.9075C115.34 16.4055 111.946 15 108.408 15C104.869 15 101.475 16.4055 98.9729 18.9075L93.0915 24.7889L111.961 43.6583L117.842 37.7768C120.344 35.2745 121.75 31.8808 121.75 28.3422C121.75 24.8036 120.344 21.4099 117.842 18.9075ZM106.567 49.0517L87.698 30.1823L25.9355 91.9448C22.7984 95.0804 20.4922 98.9485 19.2255 103.199L15.1589 116.848C14.9625 117.507 14.9479 118.206 15.1165 118.872C15.2851 119.539 15.6307 120.147 16.1167 120.633C16.6026 121.119 17.211 121.465 17.8772 121.633C18.5435 121.802 19.243 121.787 19.9016 121.591L33.5504 117.524C37.8012 116.258 41.6693 113.951 44.8049 110.814L106.567 49.0517Z" fill="#1E1E1E"/>
</svg>
