<svg width="106" height="102" viewBox="0 0 106 102" fill="none" xmlns="http://www.w3.org/2000/svg">
<path d="M103.284 46.0433C104.472 45.1579 105.354 43.9227 105.805 42.511C106.256 41.0992 106.254 39.5817 105.799 38.1712C105.344 36.7607 104.459 35.5279 103.268 34.6457C102.077 33.7635 100.64 33.2761 99.1585 33.2519L70.378 32.1647C70.2365 32.1549 70.1009 32.1044 69.9874 32.0193C69.8739 31.9342 69.7875 31.8181 69.7385 31.685L59.7932 4.82325C59.2935 3.45662 58.386 2.27655 57.1934 1.44281C56.0008 0.609067 54.5808 0.161926 53.1257 0.161926C51.6706 0.161926 50.2506 0.609067 49.0581 1.44281C47.8655 2.27655 46.9579 3.45662 46.4583 4.82325L36.545 31.7809C36.496 31.914 36.4095 32.0302 36.2961 32.1153C36.1826 32.2004 36.0469 32.2508 35.9054 32.2606L7.12497 33.3479C5.64312 33.3721 4.20599 33.8594 3.0151 34.7416C1.82422 35.6238 0.939285 36.8566 0.484394 38.2671C0.0295021 39.6776 0.0274612 41.1952 0.478557 42.6069C0.929653 44.0186 1.81126 45.2538 2.99977 46.1392L25.5764 63.8871C25.6894 63.9761 25.7739 64.0961 25.8194 64.2325C25.8648 64.3689 25.8693 64.5157 25.8323 64.6546L18.0615 92.1879C17.6589 93.59 17.6979 95.082 18.1733 96.4612C18.6487 97.8403 19.5374 99.0394 20.7185 99.8956C21.8996 100.752 23.3157 101.223 24.7743 101.246C26.2328 101.269 27.663 100.841 28.8702 100.023L52.726 84.0334C52.8435 83.9523 52.9829 83.9089 53.1257 83.9089C53.2685 83.9089 53.408 83.9523 53.5255 84.0334L77.3813 100.023C78.5721 100.869 79.9972 101.325 81.4585 101.325C82.9198 101.325 84.3448 100.869 85.5357 100.023C86.7171 99.1745 87.6067 97.9812 88.082 96.6068C88.5573 95.2324 88.595 93.7445 88.1899 92.3478L80.3552 64.7186C80.3137 64.5799 80.316 64.4317 80.3618 64.2944C80.4076 64.157 80.4946 64.0371 80.6111 63.9511L103.284 46.0433Z" fill="black"/>
</svg>
